<svg xmlns="http://www.w3.org/2000/svg" width="456" height="168" viewBox="0 0 456 168">
  <defs>
    <style>
      .cls-1 {
        fill: #fff;
        fill-rule: evenodd;
      }
    </style>
  </defs>
  <path id="Forma_1" data-name="Forma 1" class="cls-1" d="M16,7H148V157H16V7ZM218,39c2.873,1.12,1.842.174,3,3h1v1c-4.675,1.188-6.481,3.674-11,5V47h1Zm87,13a197.951,197.951,0,0,0,41,0c0.094,3.09.14,6.33-1,8-1.225-6.861-9.2-5.449-17-5v45a30.978,30.978,0,0,1,5,3c-4.485.156-12.221,0.849-15-1,8.031-1.686,5.312-36.009,5-47-8.123-.243-13.575.253-18,3V52Zm76,0c0.117,3.28.236,7.184-1,9-0.33-4.163.185-3.676-3-5-2.811-1.854-10.487-1.128-15-1V77h14a17.684,17.684,0,0,1,2-4c0.141,3.671.435,8.876-1,11-0.692-3.668.044-2.733-3-4-2.312-1.541-8.105-1.119-12-1v22c14.293,0.4,14.636-1.2,22-7v2c-1.218,1.579-1.749,4.443-3,6-5.234,3.36-21.519,1.134-29,1v-1c8.03-1.682,5.315-35.1,5-46a31.036,31.036,0,0,1-5-3C361.765,53.081,372.738,52.995,381,52ZM163,53c4.485-.156,12.221-0.849,15,1-3.668.692-2.733-.044-4,3-3.172,5.147-1.043,46.171-3,55-3.481,2.3-4.517,4.246-10,5v-1c2.212-1.142,4.935-2.905,6-5,1.484-2.919,4.1-47.4,2-53C168,55.321,165.006,54.7,163,53Zm23,0c4.279-.154,11.387-0.744,14,1-8.369,1.693-5.354,25.088-5,35,3.369,4.548,2.965,8.928,9,11,4.248,3.491,10.275,1.23,15,0,9.361-12.783,7.2-23.446,7-45h-1V54c-2.328-.2-2.826-0.193-4-1,4.075-.151,10.552-0.64,13,1-3.668.692-2.733-.044-4,3-5.025,8.349,2.327,24.865-1,35-1.622,4.94-6.742,7.595-10,11-37.742,3.276-23.874-18.353-29-48A17.687,17.687,0,0,1,186,53Zm66,2c-0.11,14.775-1.55,32.955,1,46,1.3,0.474,3.959,1.214,5,2-4.485.156-12.221,0.849-15-1,3.668-.692,2.733.044,4-3,3.084-4.779,1.255-37.912,0-44a17.687,17.687,0,0,1-4-2c9.834-.151,19.859.318,27,2l5,6c0.313,5.037,1.477,7.6-1,11-1.414,4.185-4.328,5.229-7,8-5.06.213-9.51,0.271-12-2,5.695,0.075,8.128-.968,12-2,2.01-4.21,3.038-7.018,3-14-1.615-1.913-1.89-3.488-4-5C263.047,54.65,257.513,54.855,252,55Zm32-2c4.485-.156,12.221-0.849,15,1-4.163.33-3.676-.185-5,3-3.084,4.779-1.255,37.912,0,44,1.3,0.474,3.959,1.214,5,2-4.485.156-12.221,0.849-15-1,3.668-.692,2.733.044,4-3,3.084-4.779,1.255-37.912,0-44A17.687,17.687,0,0,1,284,53Zm119,2v45a30.978,30.978,0,0,1,5,3c-4.485.156-12.221,0.849-15-1,8.03-1.682,5.315-35.1,5-46a31.036,31.036,0,0,1-5-3c10.111-.151,20.613.263,28,2,2.959,4.6,4.963,6.841,5,15-1.863,2.223-2.666,6.3-5,8-2.066,1.5-4.26,1.353-6,3h1l14,19c2.181,1.5,5.051,1.462,7,3h-7c-1.36-1.108-3.381-.915-5-2-4.954-3.319-13.927-17.579-19-23,13.44,0.528,20.538-13.917,10-21C413.19,54.758,408.285,54.864,403,55Z"/>
</svg>
